# xmcd
#
# Track frame offsets:
# 150
# 16068
# 33982
# 53493
# 70833
# 89945
# 105064
# 129728
# 149671
# 165549
#
# Disc length: 2468 seconds
#
#
# Revision: 0
# Processed by: cddbd v1.5.2PL0 Copyright (c) Steve Scherf et al.
# Submitted via: Nero 7, 11, 10, 0 
#
DISCID=8009a20a
DTITLE=John Morris Band - Busy On You
DYEAR=1997
DGENRE=Blues
TTITLE0=Mystery Train
TTITLE1=Call Me (On The Telephone)
TTITLE2=Busy On You
TTITLE3=Let Me
TTITLE4=Baby Talk
TTITLE5=Ought To Be Making Love
TTITLE6=Just Lucky I Guess
TTITLE7=What Time It Is
TTITLE8=The Way I Do
TTITLE9=Make Love To You
EXTD=
EXTT0=Mystery Train
EXTT1=Call Me (On The Telephone)
EXTT2=Busy On You
EXTT3=Let Me
EXTT4=Baby Talk
EXTT5=Ought To Be Making Love
EXTT6=Just Lucky I Guess
EXTT7=What Time It Is
EXTT8=The Way I Do
EXTT9=Make Love To You
PLAYORDER=
